<svg width="25" height="24" viewBox="0 0 24.0919 24" fill="none" xmlns="http://www.w3.org/2000/svg" focusable="false">
  <path d="M21.0804 21L15.0574 15M17.0651 10C17.0651 10.9193 16.8833 11.8295 16.5302 12.6788C16.1771 13.5281 15.6595 14.2997 15.007 14.9497C14.3545 15.5998 13.5798 16.1154 12.7273 16.4672C11.8748 16.8189 10.961 17 10.0383 17C9.1155 17 8.20177 16.8189 7.34924 16.4672C6.49671 16.1154 5.72208 15.5998 5.06958 14.9497C4.41708 14.2997 3.8995 13.5281 3.54637 12.6788C3.19324 11.8295 3.01148 10.9193 3.01148 10C3.01148 8.14348 3.7518 6.36301 5.06958 5.05025C6.38736 3.7375 8.17465 3 10.0383 3C11.9019 3 13.6892 3.7375 15.007 5.05025C16.3247 6.36301 17.0651 8.14348 17.0651 10Z" stroke="currentColor" stroke-linecap="round" stroke-linejoin="round"/>
</svg>
